<svg height="20" width="118" xmlns="http://www.w3.org/2000/svg" xmlns:xlink="http://www.w3.org/1999/xlink"><linearGradient id="a" x2="0" y2="100%"><stop offset="0" stop-color="#bbb" stop-opacity=".1"/><stop offset="1" stop-opacity=".1"/></linearGradient><clipPath id="b"><rect height="20" rx="3" width="118"/></clipPath><g clip-path="url(#b)"><path d="m0 0h77v20h-77z" fill="#555"/><path d="m77 0h41v20h-41z" fill="#007ec6"/><path d="m0 0h120v20h-120z" fill="url(#a)"/></g><g fill="#fff" font-family="DejaVu Sans,Verdana,Geneva,sans-serif" font-size="11" text-anchor="middle"><path d="m11.746091 14.424547c.382938-1.04659 1.785108-5.0267785 2.010237-6.0706679.254543-1.1802779-.278322-1.2955063-1.490274-.8996381-1.211951.395868-4.3200853 1.5478707-4.843216 1.7335521-.5231296.1856814-3.069953 1.0416579-3.5979753 1.2970649-1.0784936.578481-.55385 1.4613.6518127 1.919694 3.6035886 1.729741 2.5803537.84829 4.1891703 4.048936.3310911.817638 1.1117786 2.210355 1.8594893 1.157595.39307-.598756.919616-2.363502 1.220756-3.186536z" fill="#010101" fill-opacity=".298039"/><text fill="#010101" fill-opacity=".3" x="47.5" y="15">telegram</text><text x="47.5" y="14">telegram</text><text fill="#010101" fill-opacity=".3" x="97.5" y="15">group</text><text x="97.5" y="14">group</text><path d="m11.728849 12.726132c.382938-1.04659 1.785108-5.0267788 2.010237-6.0706682.254543-1.1802779-.278322-1.2955063-1.490274-.8996381-1.211951.395868-4.320086 1.5478707-4.8432167 1.7335521-.5231296.1856814-3.069953 1.0416583-3.5979753 1.2970646-1.0784936.5784809-.55385 1.4613006.6518127 1.9196946 3.6035886 1.729741 2.5803537.84829 4.1891699 4.048936.3310922.817638 1.1117792 2.210355 1.8594904 1.157595.39307-.598756.919616-2.363502 1.220756-3.186536z" fill="#fff"/></g></svg>